<?xml version="1.0" encoding="UTF-8" standalone="no"?>
<svg xmlns="http://www.w3.org/2000/svg" viewBox="0 0 400 200" width="400" height="200">
  <!-- Simplified car outline only -->
  <path fill="#000000" d="M 26.56,142.66 s -16.82,-30.31 19.09,-47.47 c 0,0 8.76,-7.71 70.6,-10.16 c 0,0 35.91,-25.75 56.23,-30.83 c 0,0 23.47,-10.34 71.12,-7.18 c 0,0 33.46,2.1 63.59,16.82 c 0,0 24.53,13.49 50.1,14.54 c 0,0 15.59,-1.23 16.29,14.19 c 0,0 9.81,35.74 -5.96,46.95 c 0,0 3.85,-7.71 -0.18,-26.1 c 0,0 -1.93,-7.43 -3.15,-18.87 c 0,0 0.18,-5.48 -9.99,-6.36 c 0,0 -18.57,2.63 -56.93,-16.99 c 0,0 -54.31,-28.03 -122.63,-7.71 c 0,0 -34.16,14.01 -48.18,29.08 l 156.96,-5.08 s -3.15,7.88 -82.34,9.64 c 0,0 -76.2 0.18 -105.28,-0.7 c 0,0 -46.25,2.1 -61.14,16.64 c 0,0 -8.23,9.99 -8.23,29.61 Z"/>
</svg>

