<?xml version="1.0" encoding="UTF-8" standalone="no"?>
<svg
   id="Logo"
   viewBox="0 0 622.24 234.24002"
   version="1.1"
   sodipodi:docname="logo-bw.svg"
   width="622.23999"
   height="234.24001"
   inkscape:version="1.4.2 (2aeb623e1d, 2025-05-12)"
   xmlns:inkscape="http://www.inkscape.org/namespaces/inkscape"
   xmlns:sodipodi="http://sodipodi.sourceforge.net/DTD/sodipodi-0.dtd"
   xmlns="http://www.w3.org/2000/svg"
   xmlns:svg="http://www.w3.org/2000/svg">
  <sodipodi:namedview
     id="namedview8"
     pagecolor="#ffffff"
     bordercolor="#666666"
     borderopacity="1.0"
     inkscape:showpageshadow="2"
     inkscape:pageopacity="0.0"
     inkscape:pagecheckerboard="0"
     inkscape:deskcolor="#d1d1d1"
     inkscape:zoom="1.0156798"
     inkscape:cx="306.19886"
     inkscape:cy="224.97248"
     inkscape:window-width="1854"
     inkscape:window-height="1016"
     inkscape:window-x="66"
     inkscape:window-y="27"
     inkscape:window-maximized="1"
     inkscape:current-layer="Logo" />
  <defs
     id="defs1">
    <style
       id="style1">
      .cls-1 {
        letter-spacing: .02em;
      }

      .cls-2 {
        font-family: Baloo, Baloo;
        font-size: 53.12px;
      }

      .cls-2, .cls-3 {
        fill: #000000;
      }

      .cls-4 {
        letter-spacing: 0em;
      }

      .cls-5 {
        letter-spacing: 0em;
      }
    </style>
  </defs>
  <g
     id="g8"
     transform="translate(105.84044,-76.795855)"
     style="fill:#000000">
    <g
       id="text4"
       class="cls-2"
       style="font-size:53.12px;font-family:Baloo, Baloo;fill:#000000"
       transform="translate(55.1,245.18)"
       aria-label="AUTO-DENS">
      <path
         style="letter-spacing:0em;fill:#000000"
         d="m 10.30528,-31.234559 q 0.90304,-0.5312 2.70912,-1.00928 1.8592,-0.47808 3.7184,-0.47808 2.656,0 4.67456,0.7968 2.07168,0.74368 2.656,2.3904 0.956159,2.76224 2.071679,6.427519 1.11552,3.66528 2.23104,7.59616 1.11552,3.87776 2.17792,7.7024002 1.0624,3.7715199 1.8592,6.6931198 -0.63744,0.74368001 -1.91232,1.16864 -1.27488,0.47807999 -3.02784,0.47807999 -1.27488,0 -2.17792,-0.21248 Q 24.4352,0.10624 23.85088,-0.31871999 23.31968,-0.74367999 22.94784,-1.43424 22.62912,-2.1248 22.36352,-3.0278399 l -0.95616,-3.66528 h -9.61472 q -0.42496,1.5936 -0.84992,3.29344 -0.42496,1.6998399 -0.84992,3.2934399 -0.7436802,0.2656 -1.5936002,0.42495999 -0.7968,0.21248 -1.9654399,0.21248 -2.70912,0 -4.03712,-0.90303998 Q 1.22176,-1.328 1.22176,-2.9747199 q 0,-0.74368 0.21248,-1.48736 0.21248,-0.74368 0.47808,-1.75296 0.37184,-1.4342399 1.0092799,-3.5590399 0.69056,-2.1248002 1.48736,-4.5683202 0.7968,-2.49664 1.69984,-5.09952 0.90304,-2.60288 1.6998399,-4.88704 0.7968,-2.337279 1.43424,-4.143359 0.69056,-1.80608 1.0624002,-2.76224 z m 6.3744,6.852479 q -0.74368,2.23104 -1.69984,4.99328 -0.90304,2.70912 -1.64672,5.52448 H 19.92 q -0.74368,-2.86848 -1.54048,-5.5776 -0.74368,-2.76224 -1.38112,-4.94016 z"
         id="path1" />
      <path
         style="letter-spacing:0.02em;fill:#000000"
         d="m 65.65824,-11.89888 q 0,2.8684802 -1.00928,5.2588801 -0.95616,2.33728 -2.81536,4.03712 -1.8592,1.64671992 -4.5152,2.5497599 -2.656,0.90303998 -6.00256,0.90303998 -3.34656,0 -6.00256,-0.90303998 -2.656,-0.90303998 -4.5152,-2.5497599 -1.8592,-1.69984 -2.86848,-4.03712 -0.95616,-2.3903999 -0.95616,-5.2588801 v -20.291839 q 0.58432,-0.10624 1.8592,-0.2656 1.27488,-0.21248 2.44352,-0.21248 1.22176,0 2.1248,0.21248 0.95616,0.15936 1.5936,0.63744 0.63744,0.47808 0.95616,1.328 0.31872,0.84992 0.31872,2.23104 v 16.201599 q 0,2.5497602 1.38112,3.9840002 1.43424,1.4342399 3.66528,1.4342399 2.28416,0 3.66528,-1.4342399 1.38112,-1.43424 1.38112,-3.9840002 v -20.132479 q 0.58432,-0.10624 1.8592,-0.2656 1.27488,-0.21248 2.44352,-0.21248 1.22176,0 2.1248,0.21248 0.95616,0.15936 1.5936,0.63744 0.63744,0.47808 0.95616,1.328 0.31872,0.84992 0.31872,2.23104 z"
         id="path2" />
      <path
         style="letter-spacing:0em;fill:#000000"
         d="m 71.775438,-24.75392 q -0.37184,-0.584319 -0.69056,-1.593599 -0.31872,-1.00928 -0.31872,-2.1248 0,-2.07168 0.90304,-2.97472 0.95616,-0.90304 2.443519,-0.90304 h 23.16032 q 0.37184,0.58432 0.69056,1.5936 0.31872,1.00928 0.31872,2.1248 0,2.07168 -0.95616,2.97472 -0.90304,0.903039 -2.3904,0.903039 h -5.89632 v 24.54144 q -0.58432,0.15936 -1.8592,0.31872 -1.22176,0.15935999 -2.44352,0.15935999 -1.22176,0 -2.17792,-0.21247999 -0.90304,-0.15936 -1.54048,-0.63743999 Q 80.380877,-1.0624 80.062157,-1.91232 79.743437,-2.7622399 79.743437,-4.1433599 V -24.75392 Z"
         id="path3" />
      <path
         style="letter-spacing:0.02em;fill:#000000"
         d="m 100.6692,-16.14848 q 0,-4.14336 1.27488,-7.33056 1.328,-3.187199 3.55904,-5.311999 2.28416,-2.17792 5.312,-3.29344 3.08096,-1.11552 6.64,-1.11552 3.55904,0 6.58688,1.11552 3.08096,1.11552 5.36512,3.29344 2.28416,2.1248 3.55904,5.311999 1.328,3.1872 1.328,7.33056 0,4.14336 -1.27488,7.3836802 -1.27488,3.1871999 -3.55904,5.3651199 -2.23104,2.1247999 -5.312,3.2403199 -3.08096,1.11551998 -6.69312,1.11551998 -3.61216,0 -6.69312,-1.11551998 -3.08096,-1.16864 -5.312,-3.3465599 -2.23104,-2.17792 -3.50592,-5.3651199 -1.27488,-3.1872002 -1.27488,-7.2774402 z m 9.5616,0 q 0,4.83392 1.96544,7.2243202 1.96544,2.3903999 5.25888,2.3903999 3.34656,0 5.312,-2.3903999 1.96544,-2.3904002 1.96544,-7.2243202 0,-4.7808 -1.96544,-7.1712 -1.91232,-2.390399 -5.25888,-2.390399 -3.29344,0 -5.312,2.390399 -1.96544,2.33728 -1.96544,7.1712 z m 29.58779,6.2681602 q -0.37184,-0.5843202 -0.69056,-1.5404802 -0.31872,-0.95616 -0.31872,-2.01856 0,-1.96544 0.90304,-2.81536 0.90304,-0.90304 2.33728,-0.90304 h 11.36768 q 0.31872,0.58432 0.63744,1.54048 0.37184,0.95616 0.37184,2.01856 0,1.96544 -0.90304,2.86848 -0.90304,0.8499202 -2.33728,0.8499202 z m 29.95958,2.9747199 q 0.58432,0.10624 1.43424,0.21248 0.84992,0.05312 1.5936,0.05312 1.80608,0 3.29344,-0.5312 1.54048,-0.5311999 2.60288,-1.6467199 1.11552,-1.11552 1.69984,-2.8684802 0.63744,-1.80608 0.63744,-4.30272 0,-4.7808 -2.23104,-7.1712 -2.23104,-2.443519 -5.94944,-2.443519 -0.74368,0 -1.54048,0.05312 -0.74368,0.05312 -1.54048,0.15936 z m 2.97472,7.75551988 q -0.90304,0 -2.07168,-0.05312 -1.16864,-0.05312 -2.44352,-0.21247999 -1.22176,-0.15936 -2.49664,-0.42495999 -1.22176,-0.21248 -2.28416,-0.63743999 -2.9216,-1.11552001 -2.9216,-3.87775991 V -29.162879 q 0,-1.11552 0.58432,-1.69984 0.63744,-0.63744 1.69984,-1.00928 2.28416,-0.74368 4.83392,-0.95616 2.54976,-0.2656 4.56832,-0.2656 4.14336,0 7.48992,1.00928 3.39968,1.00928 5.79008,3.13408 2.44352,2.07168 3.77152,5.258879 1.328,3.1872 1.328,7.54304 0,4.2496 -1.27488,7.4368002 -1.27488,3.1340799 -3.66528,5.3119999 -2.33728,2.1247999 -5.63072,3.1871999 -3.29344,1.06239998 -7.27744,1.06239998 z M 196.97553,-27.250559 q 0,-2.28416 1.328,-3.61216 1.328,-1.328 3.61216,-1.328 h 17.5296 q 0.37184,0.58432 0.63744,1.54048 0.31872,0.95616 0.31872,2.01856 0,2.01856 -0.90304,2.86848 -0.84992,0.84992 -2.28416,0.84992 h -11.20832 v 4.940159 h 11.952 q 0.37184,0.58432 0.63744,1.54048 0.31872,0.90304 0.31872,1.96544 0,2.01856 -0.84992,2.86848 -0.84992,0.84992 -2.28416,0.84992 h -9.77408 v 5.5776001 h 13.65184 q 0.37184,0.58432 0.63744,1.54048 0.31872,0.95616 0.31872,2.01856 0,2.0185599 -0.90304,2.92159991 Q 218.86097,0.15936 217.42673,0.15936 h -15.51104 q -2.28416,0 -3.61216,-1.328 -1.328,-1.3279999 -1.328,-3.6121599 z M 256.31049,-1.11552 Q 255.56681,-0.37183999 254.13257,0 q -1.38112,0.42495999 -3.34656,0.42495999 -1.96544,0 -3.7184,-0.58431999 -1.75296,-0.58431999 -2.86848,-2.8153599 L 238.94025,-13.70496 q -0.7968,-1.64672 -1.43424,-3.08096 -0.63744,-1.48736 -1.38112,-3.39968 l -0.31872,0.05312 q 0.21248,2.86848 0.21248,5.8432 0.0531,2.97472 0.0531,5.8432002 V -0.21248 q -0.58432,0.15936 -1.80608,0.31872 -1.16864,0.15935999 -2.33728,0.15935999 -1.16864,0 -2.07168,-0.15935999 -0.90304,-0.15936 -1.48736,-0.63743999 -0.5843,-0.47808001 -0.90302,-1.27488001 -0.31872,-0.8499199 -0.31872,-2.1779199 V -30.543999 q 0.74368,-1.0624 2.28416,-1.5936 1.54048,-0.5312 3.29344,-0.5312 1.96544,0 3.7184,0.63744 1.80608,0.58432 2.86848,2.76224 l 5.312,10.730239 q 0.7968,1.64672 1.43424,3.13408 0.63744,1.43424 1.38112,3.34656 l 0.2656,-0.05312 q -0.21248,-2.86848 -0.2656,-5.73696 -0.0531,-2.86848 -0.0531,-5.73696 v -8.605439 q 0.58432,-0.15936 1.75296,-0.31872 1.22176,-0.15936 2.3904,-0.15936 2.33728,0 3.55904,0.84992 1.22176,0.7968 1.22176,3.39968 z m 17.10457,-11.6864 q -2.33728,-0.7968 -4.2496,-1.5936 -1.91232,-0.84992 -3.29344,-2.01856 -1.38112,-1.16864 -2.17792,-2.76224 -0.74368,-1.64672 -0.74368,-3.984 0,-4.515199 3.4528,-7.224319 3.50592,-2.70912 9.77408,-2.70912 2.28416,0 4.2496,0.31872 1.96544,0.31872 3.34656,1.00928 1.43424,0.63744 2.23104,1.69984 0.7968,1.00928 0.7968,2.3904 0,1.38112 -0.63744,2.3904 -0.63744,0.956159 -1.54048,1.646719 -1.16864,-0.74368 -3.13408,-1.274879 -1.96544,-0.58432 -4.30272,-0.58432 -2.3904,0 -3.50592,0.690559 -1.11552,0.63744 -1.11552,1.64672 0,0.7968 0.69056,1.328 0.69056,0.47808 2.07168,0.90304 l 2.81536,0.90304 q 4.99328,1.5936 7.64928,4.09024 2.70912,2.44352 2.70912,6.6931202 0,4.5151999 -3.55904,7.3305598 -3.55904,2.76223998 -10.46464,2.76223998 -2.44352,0 -4.56832,-0.42495999 -2.07168,-0.37183999 -3.66528,-1.11551998 -1.54048,-0.79680001 -2.44352,-1.91231991 -0.84992,-1.16864 -0.84992,-2.656 0,-1.54048 0.90304,-2.6028799 0.90304,-1.11552 1.96544,-1.69984 1.48736,1.16864 3.61216,2.01856 2.17792,0.8499199 4.72768,0.8499199 2.60288,0 3.66528,-0.7967999 1.0624,-0.7968 1.0624,-1.8592 0,-1.0624002 -0.84992,-1.5936002 -0.84992,-0.58432 -2.3904,-1.11552 z"
         id="path4" />
    </g>
    <g
       id="text8"
       class="cls-2"
       style="font-size:53.12px;font-family:Baloo, Baloo;fill:#000000"
       transform="translate(55.1,245.18)"
       aria-label="AUTO-DENS">
      <path
         style="letter-spacing:0em;fill:#000000"
         d="m 10.30528,-31.234559 q 0.90304,-0.5312 2.70912,-1.00928 1.8592,-0.47808 3.7184,-0.47808 2.656,0 4.67456,0.7968 2.07168,0.74368 2.656,2.3904 0.956159,2.76224 2.071679,6.427519 1.11552,3.66528 2.23104,7.59616 1.11552,3.87776 2.17792,7.7024002 1.0624,3.7715199 1.8592,6.6931198 -0.63744,0.74368001 -1.91232,1.16864 -1.27488,0.47807999 -3.02784,0.47807999 -1.27488,0 -2.17792,-0.21248 Q 24.4352,0.10624 23.85088,-0.31871999 23.31968,-0.74367999 22.94784,-1.43424 22.62912,-2.1248 22.36352,-3.0278399 l -0.95616,-3.66528 h -9.61472 q -0.42496,1.5936 -0.84992,3.29344 -0.42496,1.6998399 -0.84992,3.2934399 -0.7436802,0.2656 -1.5936002,0.42495999 -0.7968,0.21248 -1.9654399,0.21248 -2.70912,0 -4.03712,-0.90303998 Q 1.22176,-1.328 1.22176,-2.9747199 q 0,-0.74368 0.21248,-1.48736 0.21248,-0.74368 0.47808,-1.75296 0.37184,-1.4342399 1.0092799,-3.5590399 0.69056,-2.1248002 1.48736,-4.5683202 0.7968,-2.49664 1.69984,-5.09952 0.90304,-2.60288 1.6998399,-4.88704 0.7968,-2.337279 1.43424,-4.143359 0.69056,-1.80608 1.0624002,-2.76224 z m 6.3744,6.852479 q -0.74368,2.23104 -1.69984,4.99328 -0.90304,2.70912 -1.64672,5.52448 H 19.92 q -0.74368,-2.86848 -1.54048,-5.5776 -0.74368,-2.76224 -1.38112,-4.94016 z"
         id="path5" />
      <path
         style="letter-spacing:0.02em;fill:#000000"
         d="m 65.65824,-11.89888 q 0,2.8684802 -1.00928,5.2588801 -0.95616,2.33728 -2.81536,4.03712 -1.8592,1.64671992 -4.5152,2.5497599 -2.656,0.90303998 -6.00256,0.90303998 -3.34656,0 -6.00256,-0.90303998 -2.656,-0.90303998 -4.5152,-2.5497599 -1.8592,-1.69984 -2.86848,-4.03712 -0.95616,-2.3903999 -0.95616,-5.2588801 v -20.291839 q 0.58432,-0.10624 1.8592,-0.2656 1.27488,-0.21248 2.44352,-0.21248 1.22176,0 2.1248,0.21248 0.95616,0.15936 1.5936,0.63744 0.63744,0.47808 0.95616,1.328 0.31872,0.84992 0.31872,2.23104 v 16.201599 q 0,2.5497602 1.38112,3.9840002 1.43424,1.4342399 3.66528,1.4342399 2.28416,0 3.66528,-1.4342399 1.38112,-1.43424 1.38112,-3.9840002 v -20.132479 q 0.58432,-0.10624 1.8592,-0.2656 1.27488,-0.21248 2.44352,-0.21248 1.22176,0 2.1248,0.21248 0.95616,0.15936 1.5936,0.63744 0.63744,0.47808 0.95616,1.328 0.31872,0.84992 0.31872,2.23104 z"
         id="path6" />
      <path
         style="letter-spacing:0em;fill:#000000"
         d="m 71.775438,-24.75392 q -0.37184,-0.584319 -0.69056,-1.593599 -0.31872,-1.00928 -0.31872,-2.1248 0,-2.07168 0.90304,-2.97472 0.95616,-0.90304 2.443519,-0.90304 h 23.16032 q 0.37184,0.58432 0.69056,1.5936 0.31872,1.00928 0.31872,2.1248 0,2.07168 -0.95616,2.97472 -0.90304,0.903039 -2.3904,0.903039 h -5.89632 v 24.54144 q -0.58432,0.15936 -1.8592,0.31872 -1.22176,0.15935999 -2.44352,0.15935999 -1.22176,0 -2.17792,-0.21247999 -0.90304,-0.15936 -1.54048,-0.63743999 Q 80.380877,-1.0624 80.062157,-1.91232 79.743437,-2.7622399 79.743437,-4.1433599 V -24.75392 Z"
         id="path7" />
      <path
         style="letter-spacing:0.02em;fill:#000000"
         d="m 100.6692,-16.14848 q 0,-4.14336 1.27488,-7.33056 1.328,-3.187199 3.55904,-5.311999 2.28416,-2.17792 5.312,-3.29344 3.08096,-1.11552 6.64,-1.11552 3.55904,0 6.58688,1.11552 3.08096,1.11552 5.36512,3.29344 2.28416,2.1248 3.55904,5.311999 1.328,3.1872 1.328,7.33056 0,4.14336 -1.27488,7.3836802 -1.27488,3.1871999 -3.55904,5.3651199 -2.23104,2.1247999 -5.312,3.2403199 -3.08096,1.11551998 -6.69312,1.11551998 -3.61216,0 -6.69312,-1.11551998 -3.08096,-1.16864 -5.312,-3.3465599 -2.23104,-2.17792 -3.50592,-5.3651199 -1.27488,-3.1872002 -1.27488,-7.2774402 z m 9.5616,0 q 0,4.83392 1.96544,7.2243202 1.96544,2.3903999 5.25888,2.3903999 3.34656,0 5.312,-2.3903999 1.96544,-2.3904002 1.96544,-7.2243202 0,-4.7808 -1.96544,-7.1712 -1.91232,-2.390399 -5.25888,-2.390399 -3.29344,0 -5.312,2.390399 -1.96544,2.33728 -1.96544,7.1712 z m 29.58779,6.2681602 q -0.37184,-0.5843202 -0.69056,-1.5404802 -0.31872,-0.95616 -0.31872,-2.01856 0,-1.96544 0.90304,-2.81536 0.90304,-0.90304 2.33728,-0.90304 h 11.36768 q 0.31872,0.58432 0.63744,1.54048 0.37184,0.95616 0.37184,2.01856 0,1.96544 -0.90304,2.86848 -0.90304,0.8499202 -2.33728,0.8499202 z m 29.95958,2.9747199 q 0.58432,0.10624 1.43424,0.21248 0.84992,0.05312 1.5936,0.05312 1.80608,0 3.29344,-0.5312 1.54048,-0.5311999 2.60288,-1.6467199 1.11552,-1.11552 1.69984,-2.8684802 0.63744,-1.80608 0.63744,-4.30272 0,-4.7808 -2.23104,-7.1712 -2.23104,-2.443519 -5.94944,-2.443519 -0.74368,0 -1.54048,0.05312 -0.74368,0.05312 -1.54048,0.15936 z m 2.97472,7.75551988 q -0.90304,0 -2.07168,-0.05312 -1.16864,-0.05312 -2.44352,-0.21247999 -1.22176,-0.15936 -2.49664,-0.42495999 -1.22176,-0.21248 -2.28416,-0.63743999 -2.9216,-1.11552001 -2.9216,-3.87775991 V -29.162879 q 0,-1.11552 0.58432,-1.69984 0.63744,-0.63744 1.69984,-1.00928 2.28416,-0.74368 4.83392,-0.95616 2.54976,-0.2656 4.56832,-0.2656 4.14336,0 7.48992,1.00928 3.39968,1.00928 5.79008,3.13408 2.44352,2.07168 3.77152,5.258879 1.328,3.1872 1.328,7.54304 0,4.2496 -1.27488,7.4368002 -1.27488,3.1340799 -3.66528,5.3119999 -2.33728,2.1247999 -5.63072,3.1871999 -3.29344,1.06239998 -7.27744,1.06239998 z M 196.97553,-27.250559 q 0,-2.28416 1.328,-3.61216 1.328,-1.328 3.61216,-1.328 h 17.5296 q 0.37184,0.58432 0.63744,1.54048 0.31872,0.95616 0.31872,2.01856 0,2.01856 -0.90304,2.86848 -0.84992,0.84992 -2.28416,0.84992 h -11.20832 v 4.940159 h 11.952 q 0.37184,0.58432 0.63744,1.54048 0.31872,0.90304 0.31872,1.96544 0,2.01856 -0.84992,2.86848 -0.84992,0.84992 -2.28416,0.84992 h -9.77408 v 5.5776001 h 13.65184 q 0.37184,0.58432 0.63744,1.54048 0.31872,0.95616 0.31872,2.01856 0,2.0185599 -0.90304,2.92159991 Q 218.86097,0.15936 217.42673,0.15936 h -15.51104 q -2.28416,0 -3.61216,-1.328 -1.328,-1.3279999 -1.328,-3.6121599 z M 256.31049,-1.11552 Q 255.56681,-0.37183999 254.13257,0 q -1.38112,0.42495999 -3.34656,0.42495999 -1.96544,0 -3.7184,-0.58431999 -1.75296,-0.58431999 -2.86848,-2.8153599 L 238.94025,-13.70496 q -0.7968,-1.64672 -1.43424,-3.08096 -0.63744,-1.48736 -1.38112,-3.39968 l -0.31872,0.05312 q 0.21248,2.86848 0.21248,5.8432 0.0531,2.97472 0.0531,5.8432002 V -0.21248 q -0.58432,0.15936 -1.80608,0.31872 -1.16864,0.15935999 -2.33728,0.15935999 -1.16864,0 -2.07168,-0.15935999 -0.90304,-0.15936 -1.48736,-0.63743999 -0.5843,-0.47808001 -0.90302,-1.27488001 -0.31872,-0.8499199 -0.31872,-2.1779199 V -30.543999 q 0.74368,-1.0624 2.28416,-1.5936 1.54048,-0.5312 3.29344,-0.5312 1.96544,0 3.7184,0.63744 1.80608,0.58432 2.86848,2.76224 l 5.312,10.730239 q 0.7968,1.64672 1.43424,3.13408 0.63744,1.43424 1.38112,3.34656 l 0.2656,-0.05312 q -0.21248,-2.86848 -0.2656,-5.73696 -0.0531,-2.86848 -0.0531,-5.73696 v -8.605439 q 0.58432,-0.15936 1.75296,-0.31872 1.22176,-0.15936 2.3904,-0.15936 2.33728,0 3.55904,0.84992 1.22176,0.7968 1.22176,3.39968 z m 17.10457,-11.6864 q -2.33728,-0.7968 -4.2496,-1.5936 -1.91232,-0.84992 -3.29344,-2.01856 -1.38112,-1.16864 -2.17792,-2.76224 -0.74368,-1.64672 -0.74368,-3.984 0,-4.515199 3.4528,-7.224319 3.50592,-2.70912 9.77408,-2.70912 2.28416,0 4.2496,0.31872 1.96544,0.31872 3.34656,1.00928 1.43424,0.63744 2.23104,1.69984 0.7968,1.00928 0.7968,2.3904 0,1.38112 -0.63744,2.3904 -0.63744,0.956159 -1.54048,1.646719 -1.16864,-0.74368 -3.13408,-1.274879 -1.96544,-0.58432 -4.30272,-0.58432 -2.3904,0 -3.50592,0.690559 -1.11552,0.63744 -1.11552,1.64672 0,0.7968 0.69056,1.328 0.69056,0.47808 2.07168,0.90304 l 2.81536,0.90304 q 4.99328,1.5936 7.64928,4.09024 2.70912,2.44352 2.70912,6.6931202 0,4.5151999 -3.55904,7.3305598 -3.55904,2.76223998 -10.46464,2.76223998 -2.44352,0 -4.56832,-0.42495999 -2.07168,-0.37183999 -3.66528,-1.11551998 -1.54048,-0.79680001 -2.44352,-1.91231991 -0.84992,-1.16864 -0.84992,-2.656 0,-1.54048 0.90304,-2.6028799 0.90304,-1.11552 1.96544,-1.69984 1.48736,1.16864 3.61216,2.01856 2.17792,0.8499199 4.72768,0.8499199 2.60288,0 3.66528,-0.7967999 1.0624,-0.7968 1.0624,-1.8592 0,-1.0624002 -0.84992,-1.5936002 -0.84992,-0.58432 -2.3904,-1.11552 z"
         id="path9" />
    </g>
  </g>
  <path
     class="cls-3"
     d="m 130.43132,165.86414 c 0,0 -16.82,-30.31 19.09,-47.47 0,0 8.76,-7.71 70.6,-10.16 0,0 35.91,-25.749995 56.23,-30.829995 0,0 23.47,-10.34 71.12,-7.18 0,0 33.46,2.1 63.59,16.82 0,0 24.53,13.489995 50.1,14.539995 0,0 15.59,-1.23 16.29,14.19 0,0 9.81,35.74 -5.96,46.95 0,0 3.85,-7.71 -0.18,-26.1 0,0 -1.93,-7.43 -3.15,-18.87 0,0 0.18,-5.48 -9.99,-6.36 0,0 -18.57,2.63 -56.93,-16.989995 0,0 -54.31,-28.03 -122.63,-7.71 0,0 -34.16,14.009995 -48.18,29.079995 l 156.96,-5.08 c 0,0 -3.15,7.88 -82.34,9.64 0,0 -76.2,0.18 -105.28,-0.7 0,0 -46.25,2.1 -61.14,16.64 0,0 -8.23,9.99 -8.23,29.61 z"
     id="path8"
     style="fill:#000000" />
</svg>

