<?xml version="1.0" encoding="utf-8"?>
<!-- Svg Vector Icons : http://www.onlinewebfonts.com/icon -->
<!DOCTYPE svg PUBLIC "-//W3C//DTD SVG 1.1//EN" "http://www.w3.org/Graphics/SVG/1.1/DTD/svg11.dtd">
<svg version="1.1" xmlns="http://www.w3.org/2000/svg" xmlns:xlink="http://www.w3.org/1999/xlink" x="0px" y="0px" viewBox="0 0 1000 1000" enable-background="new 0 0 1000 1000" xml:space="preserve">
<metadata> Svg Vector Icons : http://www.onlinewebfonts.com/icon </metadata>
<g><path d="M195.2,564.9c-51.4,0-93.1,43.8-93.1,97.9c0,54,41.7,97.9,93.1,97.9c51.4,0,93.1-43.8,93.1-97.9C288.2,608.7,246.6,564.9,195.2,564.9z"/><path d="M802.3,564.9c-51.4,0-93.1,43.8-93.1,97.9c0,54,41.7,97.9,93.1,97.9c51.4,0,93.1-43.8,93.1-97.9C895.3,608.7,853.7,564.9,802.3,564.9z"/><path d="M919.4,405.8h-50.6c-27.3-67-96.7-147.4-96.7-147.4c-15-18.5-25.3-17.8-25.3-17.8l-105.5-0.5l-1.4-0.8l-186.3,1.9l-0.1-0.3h-53.3c-70.8,38.5-155.6,165.6-155.6,165.6c-66.1-4.4-142.6,9.8-142.6,9.8c-80,15.3-92.1,58.1-92.1,58.1v145.3c2.3,35,36.5,49.4,36.5,49.4c8.5-155.9,148.7-155.9,148.7-155.7c147.9,12.8,146,155.9,146,155.9h313.3C663.5,513.4,801,513.4,801,513.4C952.4,526,949.1,669.3,949.1,669.3c36.6-8.8,40.9-44.7,40.9-44.7V468.9C973.8,422.2,919.4,405.8,919.4,405.8z M539.9,396.6l-214.1-1.5c90.9-120.7,100.7-109.9,101.6-109.9c0.9,0,40.2-1,44.4-1.1l70.4,1.5L539.9,396.6z M601.5,396.2l-1.2-105.8c20-1.1,84.5,0.3,116.7,1.1c0.1,0,0.3,0.1,0.4,0.1c20.9,0.5,33.5,22.2,33.5,22.2l51.9,81.8L601.5,396.2z"/></g>
</svg>