<?xml version="1.0" encoding="UTF-8" standalone="no"?>
<!-- Svg Vector Icons : http://www.onlinewebfonts.com/icon -->

<svg
   version="1.1"
   x="0px"
   y="0px"
   viewBox="0 0 1000 1000"
   enable-background="new 0 0 1000 1000"
   xml:space="preserve"
   id="svg210"
   sodipodi:docname="gearbox.svg"
   inkscape:version="1.2.2 (b0a8486541, 2022-12-01, custom)"
   xmlns:inkscape="http://www.inkscape.org/namespaces/inkscape"
   xmlns:sodipodi="http://sodipodi.sourceforge.net/DTD/sodipodi-0.dtd"
   xmlns="http://www.w3.org/2000/svg"
   xmlns:svg="http://www.w3.org/2000/svg"><defs
   id="defs214" /><sodipodi:namedview
   id="namedview212"
   pagecolor="#ffffff"
   bordercolor="#666666"
   borderopacity="1.0"
   inkscape:showpageshadow="2"
   inkscape:pageopacity="0.0"
   inkscape:pagecheckerboard="0"
   inkscape:deskcolor="#d1d1d1"
   showgrid="false"
   inkscape:zoom="0.813"
   inkscape:cx="450.79951"
   inkscape:cy="500"
   inkscape:window-width="1846"
   inkscape:window-height="1016"
   inkscape:window-x="74"
   inkscape:window-y="27"
   inkscape:window-maximized="1"
   inkscape:current-layer="svg210" />
<metadata
   id="metadata198"> Svg Vector Icons : http://www.onlinewebfonts.com/icon </metadata>
<path
   d="m 455.72,11.05 c -91.29,9.58 -175.55,42.62 -250.03,98.33 -24.44,18.18 -77.61,71.35 -95.6,95.6 C 43.23,294.71 10,392.85 10,500.95 c 0,163.43 83.48,315.33 225.21,409.95 42.03,27.76 103.81,54.54 155.02,66.47 115.54,27.17 237.72,10.36 341.52,-46.92 C 846.7,867.3 931.55,763.3 969.67,639.56 983.94,593.03 990,551.2 990,498.8 989.8,422.95 974.36,356.09 940.74,287.67 867.82,139.1 729.6,38.03 566.37,13.79 542.52,10.27 478.79,8.71 455.72,11.05 Z m 105.57,44.18 c 112.8,14.47 218.76,74.09 289.91,163.04 46.92,58.65 78.2,129.02 91.69,207.22 5.87,33.43 6.45,110.84 0.98,143.68 C 927.45,667.5 885.81,750.2 818.56,817.64 714.16,922.04 563.83,967.98 416.04,940.61 242.64,908.55 105.99,779.13 63.96,607.1 54.77,569.38 52.23,545.14 52.23,499.78 52.23,424.52 65.72,364.7 97.97,299.4 121.43,251.7 147.82,215.53 187.11,177.02 285.64,80.84 420.14,37.05 561.29,55.23 Z"
   id="path200"
   style="stroke-width:0.1;fill:#d3d3d3;fill-opacity:1" /><path
   d="m 293.27,223.94 c -35.19,11.14 -59.04,47.9 -52.39,80.35 4.5,21.9 21.5,43.99 40.66,52.98 l 9.77,4.69 0.2,127.27 V 616.5 l -9.77,4.49 c -11.92,5.67 -30.11,24.05 -35.38,35.97 -12.12,27.37 -7.23,52.78 14.27,76.44 6.25,7.04 14.27,12.9 22.68,17.01 11.34,5.67 14.86,6.45 28.74,6.45 13.68,0 17.4,-0.78 28.54,-6.25 16.03,-8.01 29.32,-21.7 37.34,-38.71 5.28,-11.53 5.86,-14.27 5.28,-28.93 -0.59,-12.9 -1.96,-18.18 -6.45,-27.37 -6.65,-13.1 -22.48,-28.74 -35.19,-34.99 l -8.99,-4.3 v -58.26 -58.26 h 62.56 62.56 v 58.26 58.26 l -8.99,4.3 c -20.53,9.97 -37.53,32.26 -41.84,54.54 -5.28,28.35 13.29,60.8 42.62,75.26 11.34,5.67 14.86,6.45 28.74,6.45 12.9,0 17.59,-0.98 26.59,-5.08 36.17,-17.01 53.76,-55.91 40.86,-90.12 -5.08,-13.88 -20.33,-31.08 -34.6,-39.1 L 500.72,616.7 V 558.25 499.8 h 95.79 c 103.22,0 104.39,-0.2 109.67,-10.17 1.57,-2.93 2.15,-22.29 1.96,-65.29 l -0.39,-61.19 10.95,-5.28 c 15.05,-7.43 32.45,-26.39 38.12,-41.25 3.52,-9.19 4.1,-14.27 3.52,-26.98 -1.17,-19.35 -7.04,-32.26 -21.89,-46.72 -11.92,-11.93 -24.44,-18.38 -40.86,-21.31 -10.75,-1.76 -13.88,-1.56 -25.8,2.15 -8.02,2.54 -17.79,7.43 -23.46,11.73 -29.32,22.29 -39.1,56.11 -24.63,85.43 7.43,14.86 20.92,29.13 34.01,36.17 l 9.19,4.89 v 48.29 48.46 h -83.08 -83.08 v -48.68 c 0,-46.92 0.2,-48.87 3.91,-50.05 7.23,-2.35 23.85,-16.23 31.28,-26.2 15.44,-20.53 18.38,-45.55 8.21,-67.44 -10.56,-22.68 -28.15,-37.34 -51.61,-43.6 -11.14,-2.93 -14.66,-3.13 -24.24,-0.98 -24.83,5.08 -43.4,19.55 -54.74,42.23 -5.67,11.53 -7.04,16.62 -7.04,26.78 -0.39,15.83 4.5,30.11 14.08,43.01 8.02,10.75 25.02,24.63 32.45,26.39 l 4.69,1.17 v 48.68 48.69 l -61.97,-0.39 -62.17,-0.59 -0.59,-47.11 -0.39,-47.31 10.36,-5.86 c 14.47,-8.21 31.28,-26.98 36.56,-40.86 5.67,-15.05 4.89,-38.32 -1.76,-51.41 -10.95,-21.31 -29.13,-36.56 -50.05,-42.03 -14.71,-3.72 -20.77,-3.53 -34.45,0.77 z m 36.95,43.21 c 7.82,4.89 12.12,14.27 12.12,26.98 0,23.26 -23.26,36.36 -46.14,26 -9.77,-4.5 -14.47,-13.29 -14.47,-27.56 0,-19.55 10.17,-29.32 30.3,-29.32 8.41,-0.01 13.69,1.16 18.19,3.9 z m 166.16,0 c 11.34,7.04 15.84,27.76 8.99,42.23 -6.06,12.9 -26.78,17.99 -43.01,10.75 -9.58,-4.3 -14.47,-13.29 -14.47,-26.39 0,-20.33 9.97,-30.5 30.3,-30.5 8.42,0 13.7,1.17 18.19,3.91 z m 211.13,0 c 7.82,4.89 12.12,14.27 12.12,26.98 0,23.26 -23.26,36.36 -46.13,26 -9.78,-4.5 -14.47,-13.29 -14.47,-27.56 0,-19.55 10.17,-29.32 30.3,-29.32 8.41,-0.01 13.69,1.16 18.18,3.9 z M 330.02,659.11 c 8.99,5.86 12.51,14.47 11.92,27.76 -1.17,19.55 -10.75,28.74 -29.91,28.74 -12.32,0 -20.14,-3.71 -26,-12.51 -3.91,-5.86 -4.5,-8.6 -3.91,-19.94 0.59,-11.34 1.56,-13.88 6.45,-19.16 3.13,-3.32 8.41,-6.84 11.73,-7.82 7.82,-2.55 23.86,-0.79 29.72,2.93 z m 166.17,0 c 8.01,5.28 12.32,14.47 12.32,26.59 0,19.16 -10.95,29.91 -30.3,29.91 -19.16,0 -30.3,-10.75 -30.3,-29.52 0,-15.64 6.65,-26 18.77,-29.91 7.61,-2.55 23.64,-0.79 29.51,2.93 z"
   id="path202"
   style="stroke-width:0.1;fill:#d3d3d3;fill-opacity:1" /><path
   d="m 637.72,584.23 c -2.54,1.37 -6.25,4.69 -8.21,7.43 -3.71,5.08 -4.3,26.2 -3.91,119.84 l 0.19,33.04 6.84,6.84 c 6.26,6.25 7.62,6.84 15.25,5.86 5.87,-0.78 9.78,-2.93 13.69,-7.24 5.08,-5.67 5.28,-6.65 5.28,-29.32 v -23.46 h 9.77 9.58 l 18.96,26.39 c 10.36,14.47 21.12,28.35 24.05,30.5 11.53,9.19 31.47,-1.56 31.47,-16.81 0,-6.45 -2.74,-11.34 -23.46,-40.46 l -6.45,-9.19 10.17,-9.77 c 12.9,-12.71 18.57,-24.83 18.57,-40.27 0,-19.74 -13.29,-39.29 -33.63,-49.26 -10.75,-5.28 -12.31,-5.48 -47.31,-6.06 -26.77,-0.4 -37.33,0.18 -40.85,1.94 z m 77.61,43.01 c 3.13,2.74 2.93,17.59 -0.39,22.29 -2.54,3.13 -5.67,3.71 -25.41,4.3 l -22.68,0.78 v -14.86 -14.66 l 15.25,-0.78 c 17.79,-0.78 29.72,0.19 33.23,2.93 z"
   id="path204"
   style="stroke-width:0.1;fill:#d3d3d3;fill-opacity:1" />
</svg>
