<?xml version="1.0" encoding="UTF-8" standalone="no"?>
<svg xmlns="http://www.w3.org/2000/svg" viewBox="0 0 100 100" width="100" height="100">
  <g transform="scale(0.07, -0.07) translate(64.28571428571418, -1114.2857142857142)">
    <path d="M194 588Q211 598 245.5 607.0Q280 616 315 616Q365 616 403.5 601.5Q442 587 453 556Q471 504 492.0 435.0Q513 366 534.0 292.5Q555 219 575.0 147.5Q595 76 610 21Q598 7 574.0 -1.5Q550 -10 517 -10Q493 -10 476.5 -6.0Q460 -2 449.5 6.0Q439 14 432.5 27.0Q426 40 421 57L403 126H222Q214 96 206.0 64.0Q198 32 190 2Q176 -3 160.5 -6.5Q145 -10 123 -10Q72 -10 47.5 7.5Q23 25 23 56Q23 70 27.0 84.0Q31 98 36 117Q43 144 55.5 184.0Q68 224 83.0 270.5Q98 317 115.0 366.0Q132 415 147.0 458.5Q162 502 174.5 536.0Q187 570 194 588ZM314 459Q300 417 282.5 365.5Q265 314 251 261H375Q361 315 346.5 366.5Q332 418 320 459Z" fill="#000000"/>
    <g transform="translate(650, 0)">
      <path d="M239 130Q250 128 266.0 126.5Q282 125 296 125Q330 125 358.5 135.0Q387 145 407.5 166.0Q428 187 439.5 220.5Q451 254 451 301Q451 391 409.0 436.5Q367 482 297 482Q283 482 268.5 481.0Q254 480 239 478ZM295 -16Q278 -16 256.0 -15.0Q234 -14 210.5 -11.0Q187 -8 163.5 -3.5Q140 1 120 9Q65 30 65 82V549Q65 570 76.5 581.5Q88 593 108 600Q151 614 199.0 618.5Q247 623 285 623Q363 623 426.5 604.0Q490 585 535.5 545.5Q581 506 606.0 446.0Q631 386 631 304Q631 224 607.0 164.5Q583 105 538.5 64.5Q494 24 432.0 4.0Q370 -16 295 -16Z" fill="#000000"/>
    </g>
  </g>
</svg>